<?xml version="1.0" encoding="utf-8"?>
<!-- Generator: Adobe Illustrator 24.1.1, SVG Export Plug-In . SVG Version: 6.00 Build 0)  -->
<svg version="1.1" id="Layer_1" xmlns="http://www.w3.org/2000/svg" xmlns:xlink="http://www.w3.org/1999/xlink" x="0px" y="0px"
	 viewBox="0 0 512 512" style="enable-background:new 0 0 512 512;" xml:space="preserve">
<style type="text/css">
	.st0{fill:#95A5A6;}
	.st1{fill:#ECF0F1;}
	.st2{fill:#BDC3C7;}
	.st3{fill:#27AE60;}
	.st4{fill:#2ECC71;}
</style>
<g id="XMLID_1_">
	<path id="XMLID_3_" class="st0" d="M36.6,24.4v243.8c0,102.2,88.1,195,219.4,243.8c130.6-48.8,219.4-141.6,219.4-243.8V24.4
		C475.4,24.4,36.6,24.4,36.6,24.4z"/>
	<path id="XMLID_4_" class="st1" d="M36.6,0v243.8c0,102.2,88.1,195,219.4,243.8c130.6-48.8,219.4-141.6,219.4-243.8V0H36.6z"/>
	<path id="XMLID_5_" class="st2" d="M36.6,0v243.8c0,102.2,88.1,195,219.4,243.8V0H36.6z"/>
	<path id="XMLID_6_" class="st3" d="M85.3,48.8v195c0,82.6,68.4,155.7,170.7,195c101.5-39.3,170.7-111.7,170.7-195v-195H85.3z"/>
	<path id="XMLID_7_" class="st4" d="M256,48.8v389.3c101.5-39.3,170.7-111.7,170.7-195V48.8H256z"/>
	<polygon id="XMLID_8_" class="st3" points="353.5,170.7 239.5,282.3 191.5,235.9 151.4,277.6 199.4,324 237.1,362.6 239.5,364.9 
		393.6,209.2 	"/>
	<polygon id="XMLID_9_" class="st1" points="353.5,146.3 239.5,258 191.5,211.6 151.4,253.2 199.4,299.6 237.1,338.2 239.5,340.5 
		393.6,184.8 	"/>
</g>
</svg>
