<?xml version="1.0" encoding="utf-8"?>
<!-- Generator: Adobe Illustrator 24.1.1, SVG Export Plug-In . SVG Version: 6.00 Build 0)  -->
<svg version="1.1" id="Layer_1" xmlns="http://www.w3.org/2000/svg" xmlns:xlink="http://www.w3.org/1999/xlink" x="0px" y="0px"
	 viewBox="0 0 512 512" style="enable-background:new 0 0 512 512;" xml:space="preserve">
<style type="text/css">
	.st0{fill:#95A5A6;}
	.st1{fill:#ECF0F1;}
	.st2{fill:#BDC3C7;}
	.st3{fill:#F39C12;}
	.st4{fill:#F1C40F;}
	.st5{fill:#34495E;}
</style>
<g id="XMLID_1_">
	<path id="XMLID_3_" class="st0" d="M36.6,24.4v243.8c0,102.2,88.1,195,219.4,243.8c130.6-48.8,219.4-141.6,219.4-243.8V24.4
		C475.4,24.4,36.6,24.4,36.6,24.4z"/>
	<path id="XMLID_4_" class="st1" d="M36.6,0v243.8c0,102.2,88.1,195,219.4,243.8c130.6-48.8,219.4-141.6,219.4-243.8V0H36.6z"/>
	<path id="XMLID_5_" class="st2" d="M36.6,0v243.8c0,102.2,88.1,195,219.4,243.8V0H36.6z"/>
	<path id="XMLID_6_" class="st3" d="M85.3,48.8v195c0,82.6,68.4,155.7,170.7,195c101.5-39.3,170.7-111.7,170.7-195v-195H85.3z"/>
	<path id="XMLID_7_" class="st4" d="M256,48.8v389.3c101.5-39.3,170.7-111.7,170.7-195V48.8H256z"/>
	<path id="XMLID_10_" class="st5" d="M256,97.5c-13.4,0-24.4,9.4-24.4,24.4l11.8,170.7h24.4l12.6-170.7
		C280.4,107,269.4,97.5,256,97.5z M256,316.2c-13.4,0-24.4,9.4-24.4,24.4c0,11.8,11,24.4,24.4,24.4s24.4-11.8,24.4-24.4
		C280.4,326.4,269.4,316.2,256,316.2z"/>
</g>
</svg>
